<svg width="101" height="31" viewBox="0 0 101 31" fill="none" xmlns="http://www.w3.org/2000/svg">
<g clip-path="url(#clip0_3581_1358)">
<path fill-rule="evenodd" clip-rule="evenodd" d="M85.358 23.8457V29.3494C85.358 29.8294 85.3752 30.3473 85.3959 30.665H84.3437L84.285 29.9261H84.2678C84.1144 30.1924 83.8914 30.4119 83.6227 30.561C83.354 30.71 83.0498 30.783 82.7429 30.772C81.6147 30.772 80.728 29.819 80.728 28.3827C80.728 26.8186 81.7009 25.8863 82.8291 25.8863C83.0826 25.8658 83.337 25.9106 83.5683 26.0164C83.7996 26.1222 84 26.2854 84.1505 26.4905H84.1815V23.8457H85.358ZM84.1815 27.9442C84.1814 27.8375 84.171 27.7311 84.1505 27.6265C84.1014 27.3897 83.971 27.1775 83.7819 27.0267C83.5929 26.876 83.3571 26.7962 83.1155 26.8013C82.353 26.8013 81.9286 27.4746 81.9286 28.3378C81.9286 29.201 82.353 29.8225 83.1051 29.8225C83.3477 29.8272 83.5843 29.7465 83.7735 29.5944C83.9627 29.4423 84.0924 29.2285 84.1401 28.9904C84.1672 28.8773 84.18 28.7613 84.1781 28.6451L84.1815 27.9442ZM51.3474 25.3237C51.2599 25.3302 51.172 25.3185 51.0892 25.2894C51.0064 25.2603 50.9304 25.2144 50.8661 25.1546C50.8018 25.0949 50.7505 25.0224 50.7155 24.9419C50.6804 24.8614 50.6623 24.7745 50.6623 24.6867C50.6623 24.5988 50.6804 24.5119 50.7155 24.4314C50.7505 24.3509 50.8018 24.2785 50.8661 24.2187C50.9304 24.1589 51.0064 24.113 51.0892 24.0839C51.172 24.0549 51.2599 24.0432 51.3474 24.0496C51.435 24.0432 51.5229 24.0549 51.6057 24.0839C51.6885 24.113 51.7645 24.1589 51.8288 24.2187C51.8931 24.2785 51.9444 24.3509 51.9794 24.4314C52.0145 24.5119 52.0326 24.5988 52.0326 24.6867C52.0326 24.7745 52.0145 24.8614 51.9794 24.9419C51.9444 25.0224 51.8931 25.0949 51.8288 25.1546C51.7645 25.2144 51.6885 25.2603 51.6057 25.2894C51.5229 25.3185 51.435 25.3302 51.3474 25.3237ZM50.7575 30.6686V25.997H51.9443V30.6686H50.7575ZM19.9207 24.2016V30.6687H18.7373V24.2016H19.9207ZM21.2904 27.3879C21.2904 26.8492 21.2731 26.3969 21.2524 26.0068H22.2875L22.3461 26.6973H22.3737C22.5337 26.4449 22.7564 26.2384 23.0201 26.0979C23.2838 25.9575 23.5794 25.888 23.8779 25.8963C24.6956 25.8963 25.5305 26.4176 25.5305 27.8954V30.6577H24.3575V28.0301C24.3575 27.3395 24.1091 26.8492 23.4605 26.8492C23.2536 26.8532 23.0531 26.922 22.8873 27.0458C22.7214 27.1697 22.5985 27.3424 22.5359 27.5398C22.4952 27.6598 22.4754 27.786 22.4772 27.9127V30.6749H21.2904V27.3879ZM26.7693 26.0075C26.79 26.3977 26.8107 26.85 26.8107 27.3886V30.6757H27.9941V27.9134C27.9923 27.7867 28.0121 27.6606 28.0527 27.5405C28.1156 27.3426 28.239 27.1695 28.4056 27.0456C28.5721 26.9217 28.7733 26.8532 28.9808 26.85C29.626 26.85 29.8744 27.3403 29.8744 28.0308V30.6584H31.0508V27.8962C31.0508 26.4184 30.2125 25.897 29.3948 25.897C29.0968 25.8894 28.8019 25.9592 28.5389 26.0995C28.2759 26.2399 28.0537 26.4461 27.894 26.6981H27.863L27.8043 26.0075H26.7693ZM34.3802 30.7751C34.0625 30.7879 33.7456 30.7336 33.4502 30.6158C33.1548 30.4981 32.8874 30.3194 32.6655 30.0914C32.4436 29.8635 32.2721 29.5914 32.1621 29.2927C32.0522 28.9941 32.0062 28.6757 32.0273 28.3581C32.0273 26.8251 33.0416 25.8825 34.4423 25.8825C35.843 25.8825 36.7746 26.8631 36.7746 28.2994C36.7746 30.0258 35.5601 30.7854 34.3595 30.7854L34.3802 30.7751ZM34.4182 29.9188C35.1082 29.9188 35.567 29.2662 35.567 28.3167C35.567 27.5881 35.222 26.7457 34.4285 26.7457C33.635 26.7457 33.2521 27.5605 33.2521 28.3374C33.2521 29.2386 33.704 29.9188 34.4113 29.9188H34.4182ZM39.2029 28.3653L38.4404 25.9967H37.157L38.9027 30.6683H40.0723L41.8663 25.9967H40.6208L39.8687 28.3653C39.7445 28.7866 39.6376 29.1526 39.5513 29.5358H39.5203C39.434 29.1526 39.3374 28.7797 39.2029 28.3653ZM46.1752 29.5466C46.1674 29.9223 46.194 30.2979 46.2546 30.6687H45.1954L45.1092 30.1508H45.0816C44.9142 30.3532 44.7029 30.5147 44.4637 30.623C44.2246 30.7313 43.9639 30.7835 43.7015 30.7758C43.5126 30.7885 43.3231 30.7623 43.1448 30.6986C42.9664 30.635 42.8031 30.5353 42.6649 30.4057C42.5267 30.2762 42.4167 30.1196 42.3416 29.9456C42.2665 29.7717 42.2279 29.5841 42.2284 29.3946C42.2284 28.2241 43.2634 27.6199 45.0126 27.6268V27.5508C45.0126 27.2435 44.8883 26.736 44.0603 26.736C43.6163 26.7372 43.1806 26.8563 42.7976 27.0813L42.563 26.3147C43.0833 26.0314 43.6683 25.8886 44.2604 25.9004C45.7681 25.9004 46.1994 26.8499 46.1994 27.8789L46.1752 29.5466ZM45.0195 28.3864C44.1811 28.3864 43.3807 28.5487 43.3807 29.2565C43.3696 29.3499 43.3798 29.4445 43.4105 29.5334C43.4413 29.6222 43.4918 29.7029 43.5582 29.7694C43.6247 29.8359 43.7053 29.8864 43.7941 29.9172C43.8828 29.948 43.9774 29.9582 44.0707 29.9471C44.2742 29.9518 44.474 29.8923 44.6418 29.7771C44.8096 29.6618 44.9369 29.4966 45.0056 29.3049C45.0312 29.2211 45.0417 29.1334 45.0367 29.0459L45.0195 28.3864ZM48.7324 25.9966V24.795L47.5801 25.1231V25.9966H46.9142V26.8771H47.5801V29.0696C47.5322 29.5401 47.6669 30.0111 47.9562 30.3851C48.0866 30.5137 48.2414 30.6151 48.4114 30.6833C48.5814 30.7514 48.7632 30.7851 48.9463 30.7822C49.2376 30.7883 49.5278 30.7463 49.8054 30.6579V29.7636C49.6534 29.8026 49.4964 29.8189 49.3396 29.8119C48.8877 29.8119 48.7324 29.5254 48.7324 28.9487V26.8771H49.8606V25.9966H48.7324ZM54.7425 28.3653L53.98 25.9967H52.6966L54.4423 30.6683H55.6119L57.4059 25.9967H56.1604L55.4083 28.3653C55.2841 28.7866 55.1772 29.1526 55.0909 29.5358H55.0599C54.9736 29.1526 54.877 28.7797 54.7425 28.3653ZM58.8404 28.6592C58.8715 29.5051 59.5304 29.8677 60.2894 29.8677C60.7319 29.8739 61.1721 29.8026 61.5901 29.657L61.7626 30.465C61.2414 30.6717 60.6843 30.7726 60.1238 30.7619C58.5989 30.7619 57.7088 29.8297 57.7088 28.4002C57.7088 27.1054 58.5023 25.8866 60.0065 25.8866C61.5107 25.8866 62.0317 27.133 62.0317 28.162C62.0325 28.3285 62.0198 28.4947 61.9937 28.6592H58.8404ZM60.9104 27.834C60.9104 27.4024 60.7241 26.6945 59.9341 26.6945C59.2027 26.6945 58.8991 27.354 58.8438 27.834H60.9104ZM70.5065 27.8979L70.5125 28.0302L70.6332 30.6785H71.7924L71.4164 24.2115H69.8777L68.9807 26.801C68.7288 27.5607 68.508 28.3652 68.3321 29.0557H68.3044C68.1388 28.3375 67.9387 27.571 67.7076 26.8114L66.8589 24.2115H65.296L64.8613 30.6785H65.9791L66.124 28.0786C66.1723 27.1878 66.2103 26.1623 66.2413 25.3163H66.2482C66.4242 26.1243 66.6553 27.0082 66.9037 27.83L67.7731 30.5922H68.6805L69.6362 27.7885C69.9225 26.9737 70.1951 26.1001 70.4055 25.3129H70.4366C70.4268 26.1506 70.4696 27.0907 70.5065 27.8979ZM73.6278 25.3233C73.5039 25.3132 73.3857 25.2672 73.2877 25.1909C73.1896 25.1145 73.1159 25.0112 73.0757 24.8936C73.0354 24.776 73.0304 24.6492 73.0611 24.5287C73.0918 24.4082 73.157 24.2993 73.2487 24.2154C73.3403 24.1315 73.4545 24.0761 73.5771 24.0562C73.6997 24.0362 73.8255 24.0525 73.939 24.1031C74.0525 24.1536 74.1488 24.2362 74.2161 24.3407C74.2834 24.4452 74.3187 24.5671 74.3178 24.6915C74.3187 24.7798 74.301 24.8673 74.2658 24.9483C74.2307 25.0293 74.1789 25.102 74.1138 25.1616C74.0487 25.2212 73.9717 25.2665 73.888 25.2943C73.8042 25.3222 73.7156 25.3321 73.6278 25.3233ZM73.0413 30.6682V25.9966H74.2246V30.6682H73.0413ZM75.4701 26.0068C75.4908 26.3969 75.508 26.8492 75.508 27.3879V30.6749H76.6949V27.9127C76.693 27.786 76.7129 27.6598 76.7535 27.5398C76.8162 27.3424 76.9391 27.1697 77.1049 27.0458C77.2708 26.922 77.4712 26.8532 77.6781 26.8492C78.3267 26.8492 78.5751 27.3395 78.5751 28.0301V30.6646H79.7619V27.9023C79.7619 26.4245 78.9132 25.8963 78.0956 25.8963C77.797 25.888 77.5014 25.9575 77.2377 26.0979C76.9741 26.2384 76.7513 26.4449 76.5914 26.6973H76.5638L76.5051 26.0068H75.4701ZM87.7903 29.9187C87.3702 29.9028 86.9604 29.7843 86.5965 29.5734L86.355 30.4263C86.7972 30.6508 87.2876 30.7635 87.7833 30.7543C89.0254 30.7543 89.6912 30.1397 89.6912 29.2869C89.6809 28.5963 89.2979 28.1613 88.4389 27.8643C87.8385 27.6433 87.6178 27.4983 87.6178 27.2117C87.6178 26.9252 87.8489 26.7145 88.2733 26.7145C88.6218 26.7191 88.9636 26.8118 89.2669 26.9839L89.5084 26.1586C89.1196 25.9657 88.6899 25.8698 88.256 25.879C87.1692 25.879 86.4792 26.5143 86.4792 27.3395C86.4792 27.8954 86.8553 28.3926 87.773 28.6999C88.3526 28.9209 88.5424 29.0832 88.5424 29.3905C88.5424 29.6977 88.3112 29.9187 87.7903 29.9187Z" fill="#0356E8"/>
<path d="M14.4902 0.345279L0 20.4267H4.4402L15.1353 4.44719L17.2054 17.0015L9.48072 17.0637L17.7608 20.4267H22.7427L18.4232 0.345279H14.4902ZM80.3273 0.959876C78.3961 0.356509 76.3885 0.0332635 74.3657 0C69.6909 0 66.158 2.2236 66.158 5.88701C66.158 8.23145 67.5553 9.55387 70.6431 11.6566C72.9546 13.1586 73.8654 13.9976 73.8654 15.32C73.8654 16.4629 73.0167 18.2653 69.9151 18.2653C67.5415 18.2653 65.1713 16.822 64.6848 16.4629C64.4433 16.2212 63.4704 15.7413 63.3462 16.6424L62.8598 19.2838C62.8598 19.5842 62.8598 19.7051 63.1634 19.8259C64.4433 20.368 67.7864 20.7858 70.1566 20.7858C77.4535 20.7858 78.6092 16.2799 78.6092 14.5984C78.6092 11.8362 76.5392 10.272 74.6589 9.01178C72.1645 7.38897 70.8259 6.36694 70.8259 4.98583C70.8259 4.50589 71.0088 2.56888 74.1104 2.56888C75.7243 2.53648 77.3028 3.04444 78.5954 4.01214C78.8404 4.19169 79.8719 4.85117 80.0548 3.5909L80.4791 1.48815C80.5067 1.26027 80.5067 1.08072 80.3273 0.959876ZM35.0869 9.01178C32.5925 7.38897 31.2539 6.36694 31.2539 4.98583C31.2539 4.50589 31.4368 2.56888 34.5384 2.56888C36.1523 2.53648 37.7308 3.04444 39.0234 4.01214C39.2684 4.19169 40.2999 4.85117 40.4828 3.5909L40.9106 1.48815C40.9106 1.24646 40.9106 1.06691 40.7278 0.946064C38.8014 0.348913 36.7997 0.030338 34.7833 0C30.0982 0 26.5653 2.2236 26.5653 5.88701C26.5653 8.23145 27.966 9.55387 31.1263 11.6566C33.3757 13.1586 34.29 13.9976 34.29 15.32C34.29 16.4629 33.4378 18.2653 30.3362 18.2653C28.0247 18.2653 25.6545 16.822 25.106 16.4629C24.8645 16.2212 23.8915 15.7413 23.7673 16.6424L23.2878 19.2838C23.2878 19.5842 23.2878 19.7051 23.5948 19.8259C24.93 20.3715 28.2144 20.7858 30.5846 20.7858C37.8815 20.7858 39.0993 16.2799 39.0993 14.5984C39.0993 11.8362 36.9707 10.272 35.0869 9.01178ZM56.4772 1.38112C54.7384 0.511507 52.8281 0.0397497 50.8847 0C46.2306 0 42.6874 2.2236 42.6874 5.88701C42.6874 8.23145 44.0674 9.55387 47.2483 11.6566C49.5564 13.1586 50.4707 13.9976 50.4707 15.32C50.4707 16.4629 49.6185 18.2653 46.5169 18.2653C44.1467 18.2653 41.7145 16.822 41.1659 16.4008C40.9244 16.2212 40.0101 15.7413 39.8273 16.6424L39.4029 19.2838C39.4029 19.5842 39.4029 19.7051 39.7686 19.8259C41.0555 20.3715 44.3882 20.7858 46.6998 20.7858C54.0587 20.7858 55.2007 16.2799 55.2007 14.5984C55.2007 11.8362 53.0755 10.272 51.2504 9.01178C48.6973 7.38897 47.4174 6.36694 47.4174 4.98583C47.4174 4.50589 47.6002 2.56888 50.6432 2.56888C53.0755 2.56888 59.2165 5.8732 59.2165 5.8732L56.4772 20.4716H61.3452L64.3226 4.61293L56.4772 1.38112ZM81.6625 0.479938L81.2381 3.06262H88.29L84.84 20.4854H89.6424L92.989 3.18347H100.527L101.014 0.479938H81.6625ZM65.1851 0H56.3668L64.5779 3.36302L65.1851 0Z" fill="#0356E8"/>
</g>
<defs>
<clipPath id="clip0_3581_1358">
<rect width="101" height="30.7747" fill="white"/>
</clipPath>
</defs>
</svg>
